<!-- icon666.com - MILLIONS vector ICONS FREE --><svg id="Capa_1" enable-background="new 0 0 512.002 512.002" viewBox="0 0 512.002 512.002" xmlns="http://www.w3.org/2000/svg"><g><g><path d="m479.575 116.872h-8.156l-12.186 9.959h-407.334l-11.568-9.959h-8.156c-13.697 0-24.801 11.104-24.801 24.801v286.524c0 13.697 11.104 24.801 24.801 24.801h447.4c13.697 0 24.801-11.104 24.801-24.801v-286.524c-.001-13.697-11.104-24.801-24.801-24.801z" fill="#8bcaff"></path><g><path d="m72.213 428.198v-286.525c0-5.566 1.833-10.703 4.929-14.842h-25.243l-11.568-9.959h-8.156c-13.697 0-24.801 11.104-24.801 24.801v286.524c0 13.697 11.104 24.801 24.801 24.801h64.84c-13.698 0-24.802-11.103-24.802-24.8z" fill="#60b9fe"></path></g><path d="m427.232 358.793h-292.667l-87 17-7.234 6.228v23.696c0 7.266 5.89 13.155 13.156 13.155h404.776c7.266 0 13.156-5.89 13.156-13.155v-23.696z" fill="#fee6c1"></path><path d="m90.94 405.717v-38.4l-43.375 8.476-7.234 6.228v23.696c0 7.266 5.89 13.155 13.156 13.155h50.61c-7.267 0-13.157-5.889-13.157-13.155z" fill="#fcd79b"></path><path d="m255.874 94.418-22.51-10.438c-36.078-16.731-77.076-19.5-115.077-7.773l-69.323 21.394c-5.132 1.584-8.633 6.328-8.633 11.699v272.721c0 8.242 7.979 14.13 15.854 11.699l62.103-19.166c38-11.728 78.999-8.958 115.077 7.773 5.509 2.555 11.508 3.878 17.581 3.878h4.929l7.691-10.746v-272.091z" fill="#fef0db"></path><path d="m90.94 84.646-41.976 12.955c-5.132 1.584-8.633 6.328-8.633 11.699v272.721c0 8.242 7.979 14.13 15.854 11.699l34.755-10.726z" fill="#fee6c1"></path><path d="m462.785 97.601-69.324-21.395c-8.845-2.729-17.854-4.664-26.924-5.829l-7.472 9.376h-44.5l-6.221-6.207c-10.239 2.469-20.278 5.944-29.96 10.434l-22.51 10.438v291.788h4.929c6.073 0 12.072-1.324 17.581-3.878 36.078-16.731 77.076-19.5 115.077-7.773l62.103 19.166c7.875 2.431 15.854-3.457 15.854-11.699v-272.722c0-5.371-3.501-10.115-8.633-11.699z" fill="#fef0db"></path><path d="m309.344 74.543-1-.998c-10.239 2.469-20.278 5.944-29.96 10.434l-22.51 10.438v291.788h4.929c6.073 0 12.072-1.324 17.581-3.878 9.998-4.637 20.375-8.196 30.96-10.677z" fill="#fee6c1"></path><path d="m337.441 59.295c-7.139.382-14.25 1.24-21.286 2.571-4.529.856-7.81 4.814-7.81 9.423v116.151c0 5.813 6.735 9.031 11.258 5.381l17.838-14.398 4.291-5.587v-109.292z" fill="#ff5ca8"></path><path d="m357.698 59.488c-6.749-.491-13.515-.554-20.257-.193v119.127l17.838 14.398c4.523 3.65 11.258.432 11.258-5.381v-118.393c0-5.004-3.849-9.195-8.839-9.558z" fill="#ff7ab9"></path></g><g><path d="m223.683 115.221c-33.229-13.869-70.473-15.662-104.865-5.047l-45.365 14.001c-3.958 1.222-6.176 5.42-4.954 9.378 1.22 3.954 5.415 6.177 9.378 4.955l45.365-14.001c31.045-9.58 64.665-7.963 94.664 4.557 3.826 1.596 8.215-.21 9.81-4.033 1.595-3.822-.211-8.215-4.033-9.81z"></path><path d="m223.683 151.288c-33.229-13.87-70.473-15.662-104.865-5.047l-45.365 14.001c-3.958 1.222-6.176 5.42-4.954 9.378 1.22 3.954 5.415 6.177 9.378 4.955l45.365-14.001c31.045-9.58 64.665-7.963 94.664 4.557 3.826 1.596 8.215-.21 9.81-4.033s-.211-8.215-4.033-9.81z"></path><path d="m223.683 187.355c-33.229-13.869-70.473-15.662-104.865-5.047l-45.365 14.001c-3.958 1.222-6.176 5.42-4.954 9.378 1.22 3.954 5.415 6.177 9.378 4.955l45.365-14.001c31.045-9.581 64.665-7.963 94.664 4.557 3.826 1.595 8.215-.21 9.81-4.033s-.211-8.215-4.033-9.81z"></path><path d="m223.683 223.421c-33.229-13.87-70.473-15.662-104.865-5.047l-45.365 14.001c-3.958 1.222-6.176 5.42-4.954 9.378 1.22 3.954 5.415 6.177 9.378 4.955l45.365-14.001c31.045-9.581 64.665-7.963 94.664 4.557 3.826 1.597 8.215-.21 9.81-4.033 1.595-3.822-.211-8.214-4.033-9.81z"></path><path d="m223.683 259.488c-33.229-13.87-70.473-15.662-104.865-5.047l-45.365 14.001c-3.958 1.222-6.176 5.42-4.954 9.378 1.22 3.954 5.415 6.177 9.378 4.955l45.365-14.001c31.045-9.581 64.665-7.963 94.664 4.557 3.826 1.596 8.215-.21 9.81-4.033 1.595-3.822-.211-8.214-4.033-9.81z"></path><path d="m223.683 295.555c-33.229-13.87-70.473-15.662-104.865-5.047l-45.365 14.001c-3.958 1.222-6.176 5.42-4.954 9.378 1.22 3.954 5.415 6.177 9.378 4.955l45.365-14.001c31.045-9.581 64.665-7.963 94.664 4.557 3.826 1.596 8.215-.21 9.81-4.033 1.595-3.822-.211-8.214-4.033-9.81z"></path><path d="m223.683 331.622c-33.229-13.87-70.473-15.661-104.865-5.047l-45.365 14.001c-3.958 1.222-6.176 5.42-4.954 9.378 1.22 3.954 5.415 6.177 9.378 4.955l45.365-14.001c31.045-9.581 64.665-7.963 94.664 4.557 3.826 1.595 8.215-.21 9.81-4.033 1.595-3.822-.211-8.215-4.033-9.81z"></path><path d="m438.55 232.375-45.365-14.001c-34.393-10.613-71.636-8.821-104.865 5.047-3.822 1.596-5.628 5.988-4.032 9.81 1.597 3.824 5.987 5.63 9.81 4.033 30-12.521 63.619-14.137 94.664-4.557l45.365 14.001c3.958 1.221 8.156-.996 9.378-4.955 1.221-3.958-.997-8.156-4.955-9.378z"></path><path d="m438.55 268.442-45.365-14.001c-34.393-10.613-71.636-8.821-104.865 5.047-3.822 1.595-5.628 5.988-4.032 9.81 1.597 3.823 5.987 5.629 9.81 4.033 30-12.52 63.619-14.138 94.664-4.557l45.365 14.001c3.958 1.221 8.156-.997 9.378-4.955 1.221-3.958-.997-8.156-4.955-9.378z"></path><path d="m438.55 304.509-45.365-14.001c-34.393-10.613-71.636-8.821-104.865 5.047-3.822 1.596-5.628 5.988-4.032 9.81 1.597 3.824 5.987 5.629 9.81 4.033 30-12.52 63.619-14.137 94.664-4.557 48.841 15.074 45.969 14.336 47.58 14.336 3.203 0 6.169-2.069 7.163-5.29 1.221-3.958-.997-8.156-4.955-9.378z"></path><path d="m438.55 340.576-45.365-14.001c-34.393-10.613-71.636-8.822-104.865 5.047-3.822 1.595-5.628 5.988-4.032 9.81 1.597 3.823 5.987 5.628 9.81 4.033 30-12.521 63.619-14.138 94.664-4.557l45.365 14.001c3.958 1.221 8.156-.997 9.378-4.955 1.221-3.958-.997-8.157-4.955-9.378z"></path><path d="m479.701 109.341h-.656v-.072c0-8.714-5.595-16.295-13.921-18.866l-69.325-21.395c-7.321-2.259-14.863-4.017-22.488-5.262-2.1-6.427-7.909-11.258-14.943-11.77-7.03-.51-14.162-.579-21.202-.202-7.453.399-14.949 1.305-22.278 2.691-6.837 1.293-12.07 6.571-13.508 13.147-8.932 2.465-17.666 5.655-26.024 9.531l-19.354 8.975-19.354-8.975c-16.642-7.718-34.341-12.639-52.605-14.626-4.144-.451-7.82 2.527-8.268 6.645s2.527 7.819 6.645 8.267c16.639 1.81 32.76 6.292 47.918 13.322l18.165 8.423v279.389c-4.364-.333-8.468-1.502-11.854-3.072-37.827-17.542-80.6-20.431-120.443-8.135l-62.106 19.166c-3.058.945-6.143-1.333-6.143-4.533 0-20.897 0-264.712 0-272.721 0-2.094 1.345-3.915 3.346-4.533l69.324-21.395c9.22-2.846 18.783-4.827 28.424-5.888 4.117-.454 7.087-4.159 6.634-8.276s-4.139-7.094-8.276-6.634c-10.581 1.166-21.08 3.341-31.205 6.465l-69.325 21.396c-8.327 2.57-13.922 10.151-13.922 18.866v.072h-.656c-17.811 0-32.301 14.49-32.301 32.301v286.524c0 17.811 14.49 32.301 32.301 32.301h447.4c17.811 0 32.301-14.49 32.301-32.301v-135.058c0-4.142-3.357-7.5-7.5-7.5s-7.5 3.358-7.5 7.5v135.058c0 9.54-7.761 17.301-17.301 17.301h-447.4c-9.54 0-17.301-7.761-17.301-17.301v-286.524c0-9.54 7.761-17.301 17.301-17.301h.656v257.648 23.696c0 11.389 9.267 20.655 20.656 20.655h404.777c11.39 0 20.655-9.266 20.655-20.655v-23.696-257.648h.656c9.54 0 17.301 7.761 17.301 17.301v116.467c0 4.142 3.357 7.5 7.5 7.5s7.5-3.358 7.5-7.5v-116.467c0-17.811-14.49-32.301-32.301-32.301zm-231.2 302h-194.888c-3.119 0-5.656-2.537-5.656-5.655v-4.509c3.278.82 7.017.773 10.566-.322l62.104-19.166c36.29-11.2 75.253-8.569 109.709 7.411 5.676 2.632 11.907 4.17 18.165 4.503zm96.566-344.803c4.074-.031 8.165.104 12.213.399 1.057.077 1.884.989 1.884 2.077v117.17l-14.097-11.379zm-29.096 4.72c0-1.003.717-1.867 1.704-2.054h.001c4.088-.773 8.233-1.382 12.392-1.822v107.424l-14.097 11.379c0-5.848 0-109.328 0-114.927zm148.074 334.428c0 3.118-2.537 5.655-5.655 5.655h-194.889v-17.738c6.258-.333 12.489-1.871 18.165-4.503 34.455-15.979 73.417-18.611 109.71-7.411l62.103 19.166c3.492 1.077 7.25 1.151 10.566.322zm0-23.697c0 3.167-3.049 5.49-6.143 4.533l-62.102-19.165c-73.592-22.711-115.591 9.931-132.299 11.207v-279.389l18.165-8.423c6.234-2.892 12.698-5.37 19.305-7.407v104.063c0 12.066 14.007 18.853 23.47 11.217l13.127-10.596c14.658 11.832 13.343 10.819 14.37 11.486 7.725 5.016 17.903 1.506 21.19-6.716 5.28.981 10.514 2.261 15.634 3.841l45.365 14.001c3.957 1.221 8.156-.996 9.378-4.955 1.222-3.958-.996-8.157-4.954-9.378l-45.365-14.001c-6.221-1.919-12.594-3.449-19.021-4.569v-20.814c4.928.954 9.813 2.173 14.597 3.649l45.365 14.001c3.957 1.221 8.156-.996 9.378-4.955 1.222-3.958-.996-8.157-4.954-9.378l-45.365-14.001c-6.221-1.919-12.594-3.449-19.021-4.569v-20.814c4.928.954 9.813 2.173 14.597 3.649l45.365 14.001c3.957 1.221 8.156-.996 9.378-4.955 1.222-3.958-.996-8.157-4.954-9.378l-45.365-14.001c-6.221-1.919-12.594-3.449-19.021-4.569v-26.494c5.831 1.081 11.594 2.497 17.212 4.23l69.324 21.395c2.001.617 3.345 2.439 3.345 4.533-.001 8.124-.001 251.985-.001 272.721z"></path></g></g></svg>