<!-- icon666.com - MILLIONS vector ICONS FREE --><svg id="Layer_3" enable-background="new 0 0 64 64" viewBox="0 0 64 64" xmlns="http://www.w3.org/2000/svg"><path d="m30 20v-16c0-1.105.895-2 2-2h28c1.105 0 2 .895 2 2v16c0 1.105-.895 2-2 2h-12l-6 6v-6h-10c-1.105 0-2-.895-2-2z" fill="#e6e6e6"></path><path d="m34 6h24v4h-24z" fill="#957552"></path><path d="m34 6h21v4h-21z" fill="#c69c6d"></path><circle cx="17" cy="18" fill="#fdd089" r="7"></circle><path d="m18.5 17.5c.96.96 2.263 1.5 3.621 1.5h1.799c.047-.327.08-.66.08-1 0-3.866-3.134-7-7-7v2.879c0 1.358.54 2.661 1.5 3.621z" fill="#c69c6d"></path><path d="m15.5 17.5c-.96.96-2.263 1.5-3.621 1.5h-1.799c-.047-.327-.08-.66-.08-1 0-3.866 3.134-7 7-7v2.879c0 1.358-.54 2.661-1.5 3.621z" fill="#c69c6d"></path><path d="m15 25v3l2 2 2-2v-3" fill="#fdd089"></path><path d="m8.5 29.5c-.96.96-1.5 2.263-1.5 3.621v2.879h20v-2.879c0-1.358-.54-2.661-1.5-3.621-.96-.96-2.263-1.5-3.621-1.5h-9.757c-1.359 0-2.662.54-3.622 1.5z" fill="#b24e4a"></path><path d="m22.5 29.5c-.96-.96-2.263-1.5-3.621-1.5h-6.757c-1.358 0-2.661.54-3.621 1.5s-1.501 2.263-1.501 3.621v2.879h17v-2.879c0-1.358-.54-2.661-1.5-3.621z" fill="#ed6863"></path><path d="m31 32h20v4h-20z" fill="#5f9747"></path><path d="m31 32h17v4h-17z" fill="#7ec95f"></path><path d="m4 42h56v20h-56z" fill="#737373"></path><path d="m4 42h53v20h-53z" fill="#adadad"></path><path d="m14 47h36v9h-36z" fill="#957552"></path><path d="m14 47h33v9h-33z" fill="#c69c6d"></path><path d="m2 36h60v6h-60z" fill="#565656"></path><path d="m2 36h57v6h-57z" fill="#737373"></path><path d="m62 43h-60c-.552 0-1-.447-1-1v-6c0-.553.448-1 1-1h60c.552 0 1 .447 1 1v6c0 .553-.448 1-1 1zm-59-2h58v-4h-58z"></path><path d="m60 63h-56c-.552 0-1-.447-1-1v-20h2v19h54v-19h2v20c0 .553-.448 1-1 1z"></path><path d="m17 31c-.256 0-.512-.098-.707-.293l-2-2c-.188-.187-.293-.441-.293-.707v-3h2v2.586l1 1 1-1v-2.586h2v3c0 .266-.105.52-.293.707l-2 2c-.195.195-.451.293-.707.293z"></path><path d="m27 37h-20c-.552 0-1-.447-1-1v-2.879c0-1.636.637-3.173 1.793-4.328 1.157-1.156 2.694-1.793 4.328-1.793h2.879v2h-2.879c-1.084 0-2.146.44-2.914 1.207-.778.778-1.207 1.813-1.207 2.914v1.879h18v-1.879c0-1.102-.429-2.136-1.207-2.914-.768-.767-1.83-1.207-2.914-1.207h-2.879v-2h2.879c1.634 0 3.171.637 4.328 1.793 1.156 1.155 1.793 2.692 1.793 4.328v2.879c0 .553-.448 1-1 1z"></path><path d="m17 26c-4.411 0-8-3.589-8-8s3.589-8 8-8 8 3.589 8 8-3.589 8-8 8zm0-14c-3.309 0-6 2.691-6 6s2.691 6 6 6 6-2.691 6-6-2.691-6-6-6z"></path><path d="m11.879 20h-1.879v-2h1.879c1.084 0 2.146-.44 2.914-1.207.778-.778 1.207-1.813 1.207-2.914v-2.879h2v2.879c0 1.636-.637 3.173-1.793 4.328-1.157 1.156-2.694 1.793-4.328 1.793z"></path><path d="m24 20h-1.879c-1.634 0-3.171-.637-4.328-1.793-1.156-1.155-1.793-2.692-1.793-4.328v-2.879h2v2.879c0 1.102.429 2.136 1.207 2.914.768.767 1.83 1.207 2.914 1.207h1.879z"></path><path d="m42 29c-.129 0-.259-.024-.383-.076-.373-.154-.617-.52-.617-.924v-5h-9c-1.654 0-3-1.346-3-3v-16c0-1.654 1.346-3 3-3h28c1.654 0 3 1.346 3 3v16c0 1.654-1.346 3-3 3h-11.586l-5.707 5.707c-.191.191-.447.293-.707.293zm-10-26c-.551 0-1 .448-1 1v16c0 .552.449 1 1 1h10c.552 0 1 .447 1 1v3.586l4.293-4.293c.187-.188.442-.293.707-.293h12c.551 0 1-.448 1-1v-16c0-.552-.449-1-1-1z"></path><path d="m52 36h-2v-3h-18v3h-2v-4c0-.553.448-1 1-1h20c.552 0 1 .447 1 1z"></path><path d="m58 11h-24c-.552 0-1-.447-1-1v-4c0-.553.448-1 1-1h24c.552 0 1 .447 1 1v4c0 .553-.448 1-1 1zm-23-2h22v-2h-22z"></path><path d="m33 13h26v2h-26z"></path><path d="m33 17h26v2h-26z"></path><path d="m50 57h-36c-.552 0-1-.447-1-1v-9c0-.553.448-1 1-1h36c.552 0 1 .447 1 1v9c0 .553-.448 1-1 1zm-35-2h34v-7h-34z"></path></svg>