<!-- icon666.com - MILLIONS vector ICONS FREE --><svg version="1.1" id="Capa_1" xmlns="http://www.w3.org/2000/svg" xmlns:xlink="http://www.w3.org/1999/xlink" x="0px" y="0px" viewBox="0 0 512.001 512.001" style="enable-background:new 0 0 512.001 512.001;" xml:space="preserve"><path style="fill:#FF7F54;" d="M117.138,48.503L117.138,48.503c20.032,0,39.651,5.61,56.575,16.176l57.198,35.71 c7.694,4.803,16.336,7.448,25.089,7.992c8.753-0.544,17.395-3.188,25.089-7.992l57.198-35.71 c16.924-10.566,36.544-16.176,56.575-16.176l0,0c90.73-0.643,126.969,85.412,101.881,156.379 C470.714,278.51,396.58,356.37,344.606,403.012c-28.633,25.696-71.5,57.225-87.763,60.225c0,0-0.694,0.145-0.842,0.125 c-0.148,0.019-0.842-0.125-0.842-0.125c-16.263-2.999-59.13-34.529-87.763-60.225C115.42,356.37,41.286,278.51,15.257,204.882 C-9.831,133.915,26.407,47.859,117.138,48.503z"></path><path style="fill:#F06C4A;" d="M496.743,204.882C470.714,278.51,396.58,356.37,344.606,403.012 c-28.633,25.696-71.5,57.225-87.763,60.225c0,0-0.694,0.145-0.842,0.125c-0.148,0.019-3.852-8.73-3.776-11.914 c0.548-22.897,44.455-31.559,63.261-48.436c51.974-46.642,126.108-124.502,152.137-198.13 c23.562-66.649-6.971-146.601-85.931-155.551c4.355-0.539,8.751-0.828,13.171-0.828l0,0 C485.592,47.859,521.831,133.915,496.743,204.882z"></path><path style="fill:#B8C76F;" d="M319.475,463.374h-63.478v-42.779c0-98.968,80.23-179.198,179.198-179.198h63.478v42.779 C498.673,383.144,418.444,463.374,319.475,463.374z"></path><path style="fill:#8A8E54;" d="M255.969,463.374c-34.497-78.532-5.675-168.997,64.716-214.284 C355.182,327.622,326.36,418.088,255.969,463.374z"></path><path style="fill:#A2B16F;" d="M498.673,245.171v45.381c0,95.516-77.879,172.947-173.948,172.947h-29.654 C393.789,463.495,476.54,370.422,498.673,245.171z M320.606,249.142c-70.055,45.124-98.884,135.013-65.035,213.298 C298.608,408.579,322.316,329.88,320.606,249.142z"></path><path d="M62.076,127.35c-4.672,20.69-3.225,43.456,4.076,64.101c26.206,74.112,106.268,151.406,139.474,181.198 c3.083,2.766,3.34,7.508,0.573,10.591c-1.481,1.651-3.529,2.491-5.585,2.491c-1.784,0-3.575-0.632-5.007-1.918 c-34.063-30.56-116.241-109.994-143.599-187.362c-8.231-23.277-9.852-48.991-4.565-72.405c0.912-4.04,4.928-6.575,8.969-5.664 C60.452,119.294,62.988,123.309,62.076,127.35z M192.794,85.433l34.143,21.311c8.541,5.331,18.43,8.482,28.598,9.114 c0.311,0.02,0.62,0.02,0.931,0c10.168-0.632,20.057-3.783,28.598-9.114l57.202-35.705c15.76-9.836,33.951-15.036,52.663-15.036 c44.852-0.324,69.631,21.162,82.51,39.237c20.667,29.007,25.363,70.053,12.255,107.12c-1.088,3.076-2.288,6.227-3.567,9.367 c-1.563,3.836,0.28,8.212,4.117,9.775c0.926,0.377,1.884,0.556,2.827,0.556c2.959,0,5.763-1.763,6.949-4.672 c1.367-3.356,2.652-6.729,3.817-10.026c14.711-41.602,9.278-87.899-14.18-120.823c-20.941-29.391-54.221-45.536-93.748-45.536 c-0.343,0-0.689,0.001-1.033,0.003c-21.469,0-42.408,5.986-60.553,17.311L277.12,94.02c-6.303,3.934-13.596,6.293-21.12,6.836 c-7.524-0.543-14.817-2.902-21.12-6.836l-34.143-21.311c-3.516-2.194-8.142-1.123-10.335,2.391 C188.209,78.612,189.28,83.239,192.794,85.433z M56.326,267.635c-15.431-23.112-26.876-45.073-34.02-65.275 C9.2,165.293,13.895,124.247,34.562,95.24C47.346,77.297,71.846,56,116.14,56c0.327,0,0.655,0.001,0.984,0.003 c18.658,0,36.85,5.199,52.609,15.036c3.514,2.194,8.141,1.122,10.334-2.391c2.194-3.514,1.123-8.14-2.391-10.333 c-18.144-11.325-39.083-17.311-60.499-17.311c-40.034-0.316-73.711,15.887-94.834,45.533c-23.457,32.924-28.89,79.221-14.18,120.823 c7.558,21.375,19.565,44.456,35.686,68.603c10.346,15.497,22.523,31.635,36.194,47.967c1.484,1.772,3.612,2.687,5.756,2.686 c1.698,0,3.406-0.574,4.811-1.749c3.177-2.658,3.596-7.389,0.937-10.565C78.223,298.384,66.373,282.683,56.326,267.635z M498.696,233.995h-68.734c-27.18,0-53.323,5.831-77.7,17.331c-3.746,1.768-5.351,6.237-3.583,9.983 c1.768,3.747,6.239,5.348,9.984,3.583c22.361-10.549,46.349-15.897,71.299-15.897h61.233v41.523 c0,91.214-74.675,165.421-166.463,165.421h-25.693c-4.142,0-7.501,3.358-7.501,7.5s3.358,7.5,7.501,7.5h25.693 c100.06,0,181.465-80.936,181.465-180.421v-49.023C506.196,237.353,502.838,233.995,498.696,233.995z M230.772,442.578 c-17.784-11.53-40.153-28.85-58.376-45.201c-21.673-19.444-43.017-40.599-61.725-61.179c-2.786-3.063-7.529-3.291-10.596-0.505 c-3.065,2.786-3.291,7.529-0.505,10.595c19.044,20.949,40.763,42.475,62.807,62.253c18.761,16.833,41.841,34.698,60.233,46.622 c1.261,0.817,2.676,1.208,4.074,1.208c2.457,0,4.864-1.206,6.3-3.42C235.238,449.476,234.247,444.832,230.772,442.578z M390.937,392.776c4.142,0,7.501-3.358,7.501-7.5s-3.358-7.5-7.501-7.5h-29.324l25.971-23.599h47.041c4.143,0,7.501-3.358,7.501-7.5 s-3.358-7.5-7.501-7.5h-30.534l25.971-23.599h27.214c4.143,0,7.501-3.358,7.501-7.5s-3.358-7.5-7.501-7.5h-10.707l28.046-25.484 c1.629-1.48,2.456-3.512,2.456-5.552c0-1.8-0.644-3.605-1.95-5.042c-2.785-3.065-7.529-3.292-10.595-0.506l-51.525,46.819v-22.034 c0-4.142-3.358-7.5-7.501-7.5s-7.501,3.358-7.501,7.5v35.665l-23.83,21.654v-23.541c0-4.142-3.358-7.5-7.501-7.5 c-4.142,0-7.501,3.358-7.501,7.5v37.172L258.95,450.793c-25.547-69.438-1.91-146.753,58.296-190.186 c11.176,29.686,13.519,61.527,6.739,92.642c-0.556,2.552-1.183,5.131-1.862,7.664c-1.074,4,1.299,8.114,5.3,9.188 c3.996,1.075,8.115-1.298,9.188-5.3c0.741-2.762,1.425-5.574,2.031-8.358c8.103-37.188,4.269-75.319-11.087-110.271 c-0.883-2.01-2.602-3.531-4.704-4.165c-2.104-0.634-4.376-0.314-6.222,0.874c-35.747,22.993-62.316,58.069-74.811,98.767 c-12.615,41.09-10.03,85.415,7.279,124.809c0.826,1.88,2.33,3.251,4.099,3.954c0.93,0.393,1.926,0.59,2.924,0.59 c1.799,0,3.605-0.644,5.042-1.95l83.94-76.273h45.835V392.776z"></path></svg>