<!-- icon666.com - MILLIONS vector ICONS FREE --><svg viewBox="-24 0 512 512.001" xmlns="http://www.w3.org/2000/svg"><path d="m299.648438 280.199219h154.347656v221.800781h-154.347656" fill="#d38a5a"></path><path d="m299.648438 324.359375v-184.683594h-145.304688v362.324219h145.304688v-72.617188" fill="#fff"></path><path d="m175.808594 91.398438h102.375v48.277343h-102.375zm0 0" fill="#8e94a9"></path><path d="m191.902344 91.398438h70.183594v-17.136719c0-19.378907-15.710938-35.089844-35.089844-35.089844-19.382813 0-35.09375 15.710937-35.09375 35.089844zm0 0" fill="#fff"></path><path d="m299.648438 382.75c-.648438 0-1.308594-.070312-1.949219-.199219-.640625-.128906-1.269531-.320312-1.871094-.570312-.609375-.25-1.191406-.558594-1.730469-.917969-.550781-.371094-1.058594-.78125-1.519531-1.25-.460937-.460938-.878906-.972656-1.238281-1.511719-.363282-.550781-.671875-1.128906-.921875-1.730469-.25-.597656-.441407-1.226562-.570313-1.867187-.128906-.652344-.199218-1.300781-.199218-1.949219 0-.660156.070312-1.3125.199218-1.960937.128906-.640625.320313-1.273438.570313-1.871094.25-.601563.558593-1.179687.921875-1.730469.359375-.539062.777344-1.050781 1.238281-1.519531.460937-.460937.96875-.878906 1.519531-1.238281.539063-.363282 1.121094-.671875 1.730469-.921875.601563-.25 1.230469-.441407 1.871094-.570313 1.289062-.257812 2.621093-.257812 3.898437 0 .640625.128906 1.269532.320313 1.878906.570313.601563.25 1.183594.558593 1.722657.921875.550781.359375 1.058593.777344 1.519531 1.238281.460938.46875.878906.980469 1.238281 1.519531.363281.550782.671875 1.128906.921875 1.730469s.449219 1.230469.578125 1.871094c.132813.648437.191407 1.300781.191407 1.960937 0 .648438-.058594 1.296875-.191407 1.949219-.128906.640625-.328125 1.269531-.578125 1.867187-.25.601563-.558594 1.183594-.921875 1.730469-.359375.539063-.777343 1.050781-1.238281 1.511719-.460938.46875-.96875.878906-1.519531 1.25-.539063.359375-1.121094.667969-1.730469.917969-.601562.25-1.230469.441406-1.871094.570312-.640625.128907-1.300781.199219-1.949218.199219zm0 0"></path><path d="m10 280.199219h144.34375v221.800781h-144.34375zm0 0" fill="#baf0ff"></path><path d="m154.34375 280.199219h-144.34375l30.019531-41.222657h84.304688zm0 0" fill="#8adeff"></path><path d="m329.667969 187.523438h94.308593v92.675781h-94.308593zm0 0" fill="#ffe787"></path><path d="m423.976562 187.523438h-94.308593l47.15625-60.605469zm0 0" fill="#d38a5a"></path><path d="m351.824219 396.335938h50v105.664062h-50zm0 0" fill="#fff"></path><path d="m453.996094 270.199219h-20.019532v-82.667969c0-.082031 0-.160156-.003906-.238281 0-.019531 0-.039063 0-.058594-.003906-.0625-.003906-.121094-.007812-.183594 0-.035156-.003906-.070312-.003906-.109375-.003907-.042968-.007813-.085937-.007813-.128906-.003906-.042969-.007813-.085938-.011719-.128906 0-.019532-.003906-.035156-.003906-.050782-.164062-1.84375-.828125-3.542968-1.851562-4.960937l-.007813-.007813c-.0625-.089843-.128906-.179687-.199219-.265624-.003906-.007813-.007812-.011719-.011718-.015626v-.003906c-.011719-.011718-.023438-.027344-.035157-.042968l-47.121093-60.558594c-1.894532-2.433594-4.804688-3.859375-7.890626-3.859375-3.085937 0-5.996093 1.425781-7.894531 3.859375l-47.117187 60.558594c-.011719.015624-.023438.027343-.035156.042968v.003906c-.007813.003907-.007813.007813-.011719.015626-.070313.085937-.136719.175781-.203125.265624l-.003906.007813c-1.027344 1.417969-1.6875 3.117187-1.851563 4.960937 0 .015626-.003906.03125-.003906.050782-.003907.042968-.007813.085937-.007813.128906-.003906.042969-.007812.085938-.011718.128906 0 .039063-.003907.074219-.003907.109375-.003906.0625-.003906.121094-.007812.183594v.058594c-.003907.078125-.003907.15625-.003907.238281v82.667969h-10.015624v-130.523438c0-5.523437-4.476563-10-10-10h-11.464844v-38.277343c0-5.519532-4.476563-10-10-10h-6.097656v-7.136719c0-21.425781-15.023438-39.410157-35.089844-43.972657v-20.289062c0-5.523438-4.480469-10-10-10-5.523438 0-10 4.480469-10 10v20.285156c-20.066406 4.5625-35.09375 22.546875-35.09375 43.976563v7.136719h-6.09375c-5.523438 0-10 4.480468-10 10v38.277343h-11.464844c-5.523438 0-10 4.476563-10 10v109.804688l-11.9375-16.390625c-1.878906-2.585938-4.882812-4.113282-8.082031-4.113282h-84.304688c-3.195312 0-6.203125 1.527344-8.085937 4.113282l-30.015625 41.222656c-.007813.007812-.015625.019531-.019531.027344-1.070313 1.476562-1.746094 3.253906-1.8750005 5.183594 0 .03125-.0039063.0625-.0078125.09375 0 .035156-.0039062.070312-.0039062.109374-.0039063.066407-.00781255.132813-.00781255.199219v.054688c-.00390625.058593-.00390625.121093-.00390625.179687v.039063 221.800781c0 5.523438 4.476562 10 10 10h443.996094c5.519531 0 10-4.476562 10-10v-221.800781c0-5.523438-4.476563-10-10-10zm-77.171875-126.996094 26.703125 34.320313h-53.410156zm-37.15625 54.320313h74.308593v72.675781h-74.308593zm-137.765625-123.261719c0-13.835938 11.257812-25.089844 25.09375-25.089844 13.835937 0 25.089844 11.253906 25.089844 25.089844v7.136719h-50.183594zm-16.09375 27.136719h82.375v28.277343h-82.375zm-140.699219 147.578124h74.125l15.457031 21.222657h-105.035156zm-25.109375 41.222657h124.34375v201.800781h-124.34375zm341.824219 201.800781v-85.664062h30v85.664062zm82.171875 0h-32.171875v-95.664062c0-5.523438-4.480469-10-10-10h-50c-5.523438 0-10 4.476562-10 10v95.664062h-32.175781v-62.617188c0-5.523437-4.476563-10-10-10-5.523438 0-10 4.476563-10 10v62.617188h-125.304688v-342.324219h125.304688v174.683594c0 5.523437 4.476562 10 10 10 5.523437 0 10-4.476563 10-10v-34.160156h134.347656zm0 0"></path><path d="m43.25 326.289062h77.84375v45.332032h-77.84375zm0 0" fill="#fff"></path><path d="m121.09375 381.621094h-77.84375c-5.523438 0-10-4.476563-10-10v-45.332032c0-5.523437 4.476562-10 10-10h77.84375c5.523438 0 10 4.476563 10 10v45.332032c0 5.523437-4.476562 10-10 10zm-67.84375-20h57.84375v-25.332032h-57.84375zm0 0"></path><path d="m43.25 417.710938h77.84375v45.332031h-77.84375zm0 0" fill="#fff"></path><path d="m121.09375 473.042969h-77.84375c-5.523438 0-10-4.476563-10-10v-45.332031c0-5.523438 4.476562-10 10-10h77.84375c5.523438 0 10 4.476562 10 10v45.332031c0 5.523437-4.476562 10-10 10zm-67.84375-20h57.84375v-25.332031h-57.84375zm0 0"></path><path d="m204.742188 225.234375h47v227.917969h-47v-146.386719" fill="#baf0ff"></path><path d="m251.742188 463.152344h-47c-5.523438 0-10-4.476563-10-10v-146.386719c0-5.523437 4.476562-10 10-10 5.519531 0 10 4.476563 10 10v136.386719h27v-207.917969h-37c-5.523438 0-10-4.476563-10-10s4.476562-10 10-10h47c5.519531 0 10 4.476563 10 10v227.917969c0 5.523437-4.480469 10-10 10zm0 0"></path></svg>