<!-- icon666.com - MILLIONS vector ICONS FREE --><svg viewBox="0 0 512 511" xmlns="http://www.w3.org/2000/svg"><path d="m470.429688 142.726562 23.113281-23.117187-36.167969-36.167969 16.410156-16.410156-36.171875-36.171875-16.410156 16.410156-36.171875-36.171875-81.644531 81.648438-16.457031-16.460938-33.601563.683594-111.855469 111.859375-.320312 66.15625-58.703125 58.699219 106.234375 106.238281 58.863281-58.863281 13.527344.066406c-5.128907-4.308594-8.386719-10.765625-8.386719-17.984375 0-12.972656 10.515625-23.488281 23.484375-23.488281 12.972656 0 23.488281 10.515625 23.488281 23.488281 0 7.296875-3.332031 13.820313-8.558594 18.128906l22.601563.109375 187.691406-187.6875zm0 0" fill="#ffdaaa"></path><path d="m329.648438 155.246094c0 12.972656-10.515626 23.488281-23.488282 23.488281s-23.484375-10.515625-23.484375-23.488281c0-12.96875 10.511719-23.484375 23.484375-23.484375s23.488282 10.515625 23.488282 23.484375zm0 0" fill="#fbb984"></path><path d="m329.648438 202.21875c0 12.972656-10.515626 23.488281-23.488282 23.488281s-23.484375-10.515625-23.484375-23.488281c0-12.96875 10.511719-23.484375 23.484375-23.484375s23.488282 10.515625 23.488282 23.484375zm0 0" fill="#fbb984"></path><path d="m329.648438 249.191406c0 12.972656-10.515626 23.488282-23.488282 23.488282s-23.484375-10.515626-23.484375-23.488282c0-12.96875 10.511719-23.484375 23.484375-23.484375s23.488282 10.515625 23.488282 23.484375zm0 0" fill="#fbb984"></path><path d="m329.648438 296.167969c0 12.96875-10.515626 23.484375-23.488282 23.484375s-23.484375-10.515625-23.484375-23.484375c0-12.972657 10.511719-23.488281 23.484375-23.488281s23.488282 10.515624 23.488282 23.488281zm0 0" fill="#fbb984"></path><g fill="#ff7956"><path d="m299.660156 155.246094c0 12.972656-10.515625 23.488281-23.484375 23.488281-12.972656 0-23.488281-10.515625-23.488281-23.488281 0-12.96875 10.515625-23.484375 23.488281-23.484375 12.96875 0 23.484375 10.515625 23.484375 23.484375zm0 0"></path><path d="m299.660156 202.21875c0 12.972656-10.515625 23.488281-23.484375 23.488281-12.972656 0-23.488281-10.515625-23.488281-23.488281 0-12.96875 10.515625-23.484375 23.488281-23.484375 12.96875 0 23.484375 10.515625 23.484375 23.484375zm0 0"></path><path d="m299.660156 249.191406c0 12.972656-10.515625 23.488282-23.484375 23.488282-12.972656 0-23.488281-10.515626-23.488281-23.488282 0-12.96875 10.515625-23.484375 23.488281-23.484375 12.96875 0 23.484375 10.515625 23.484375 23.484375zm0 0"></path><path d="m299.660156 296.167969c0 12.96875-10.515625 23.484375-23.484375 23.484375-12.972656 0-23.488281-10.515625-23.488281-23.484375 0-12.972657 10.515625-23.488281 23.488281-23.488281 12.96875 0 23.484375 10.515624 23.484375 23.488281zm0 0"></path><path d="m299.660156 343.140625c0 12.96875-10.515625 23.484375-23.484375 23.484375-12.972656 0-23.488281-10.515625-23.488281-23.484375 0-12.972656 10.515625-23.488281 23.488281-23.488281 12.96875 0 23.484375 10.515625 23.484375 23.488281zm0 0"></path><path d="m257.800781 366.625h36.742188v54.597656h-36.742188zm0 0"></path></g><path d="m295.355469 504.800781h-38.367188v-64.394531c0-10.59375 8.589844-19.183594 19.183594-19.183594s19.183594 8.589844 19.183594 19.183594zm0 0" fill="#ffe477"></path><path d="m7.496094 504.765625v-157.488281l54.273437-54.273438 186.796875 186.800782-25 24.996093zm0 0" fill="#787680"></path><path d="m318.378906 77.753906 66.652344-66.652344 14.992188 14.996094-66.652344 66.652344zm0 0" fill="#fbb984"></path><path d="m436.195312 32.28125 1.414063-1.417969 14.992187 14.996094-1.414062 1.414063zm0 0" fill="#fbb984"></path><path d="m329.648438 343.140625c0-12.972656-10.515626-23.488281-23.488282-23.488281-5.699218 0-10.925781 2.03125-14.992187 5.40625 5.1875 4.308594 8.492187 10.808594 8.492187 18.082031 0 7.296875-3.332031 13.820313-8.558594 18.128906l22.601563.109375 15.820313-15.816406c.082031-.796875.125-1.605469.125-2.421875zm0 0" fill="#fbb984"></path><path d="m112.433594 313.683594 58.703125-58.699219.324219-66.15625 111.855468-111.855469 4.210938-.085937-.597656-.597657-33.601563.683594-111.855469 111.855469-.320312 66.15625-58.703125 58.699219 106.234375 106.238281 14.992187-14.992187zm0 0" fill="#fbb984"></path><path d="m272.679688 155.246094c0-9.394532 5.515624-17.503906 13.488281-21.257813-3.03125-1.429687-6.417969-2.226562-9.992188-2.226562-12.972656 0-23.488281 10.515625-23.488281 23.484375 0 12.972656 10.515625 23.488281 23.488281 23.488281 3.574219 0 6.960938-.796875 9.992188-2.226563-7.972657-3.757812-13.488281-11.863281-13.488281-21.261718zm0 0" fill="#ff3f62"></path><path d="m272.679688 202.21875c0-9.394531 5.515624-17.503906 13.488281-21.257812-3.03125-1.429688-6.417969-2.226563-9.992188-2.226563-12.972656 0-23.488281 10.515625-23.488281 23.484375 0 12.972656 10.515625 23.488281 23.488281 23.488281 3.574219 0 6.960938-.800781 9.992188-2.230469-7.972657-3.75-13.488281-11.859374-13.488281-21.257812zm0 0" fill="#ff3f62"></path><path d="m272.679688 249.191406c0-9.394531 5.515624-17.503906 13.488281-21.257812-3.03125-1.429688-6.417969-2.226563-9.992188-2.226563-12.972656 0-23.488281 10.515625-23.488281 23.484375 0 12.972656 10.515625 23.488282 23.488281 23.488282 3.574219 0 6.960938-.800782 9.992188-2.230469-7.972657-3.753907-13.488281-11.859375-13.488281-21.257813zm0 0" fill="#ff3f62"></path><path d="m272.679688 296.167969c0-9.398438 5.515624-17.507813 13.488281-21.261719-3.03125-1.429688-6.417969-2.226562-9.992188-2.226562-12.972656 0-23.488281 10.515624-23.488281 23.488281 0 12.96875 10.515625 23.484375 23.488281 23.484375 3.574219 0 6.960938-.796875 9.992188-2.226563-7.972657-3.753906-13.488281-11.863281-13.488281-21.257812zm0 0" fill="#ff3f62"></path><path d="m272.679688 343.140625c0-9.398437 5.515624-17.507813 13.488281-21.261719-3.03125-1.429687-6.417969-2.226562-9.992188-2.226562-12.972656 0-23.488281 10.515625-23.488281 23.488281 0 12.96875 10.515625 23.484375 23.488281 23.484375 3.574219 0 6.960938-.796875 9.992188-2.226562-7.972657-3.753907-13.488281-11.863282-13.488281-21.257813zm0 0" fill="#ff3f62"></path><path d="m257.800781 366.625h19.992188v54.597656h-19.992188zm0 0" fill="#ff3f62"></path><path d="m286.167969 424.03125c-2.910157-1.78125-6.332031-2.808594-9.992188-2.808594-10.597656 0-19.183593 8.589844-19.183593 19.183594v64.398438h19.988281v-64.398438c0-6.929688 3.679687-13.003906 9.1875-16.375zm0 0" fill="#ffb655"></path><path d="m37.484375 504.765625v-157.488281l39.277344-39.28125-14.992188-14.992188-54.273437 54.273438v157.488281l216.070312.035156.007813-.003906zm0 0" fill="#57565c"></path><path d="m197.515625 400.496094 34.984375-34.996094 10.605469 10.601562-34.984375 34.996094zm0 0"></path><path d="m481.035156 142.730469 23.105469-23.121094-36.164063-36.171875 16.402344-16.402344-46.761718-46.777344-16.414063 16.414063-36.171875-36.171875-81.644531 81.644531-13.421875-13.414062-39.800782.808593-116.175781 116.171876-.320312 66.148437-42.386719 42.390625 10.601562 10.601562 46.75-46.75.320313-66.152343 107.542969-107.542969 27.386718-.554688 8.902344 8.894532-69.628906 69.628906 10.601562 10.601562 11.96875-11.96875c1.328126 7.035157 5.039063 13.234376 10.261719 17.726563-6.609375 5.6875-10.796875 14.105469-10.796875 23.484375 0 9.382812 4.1875 17.800781 10.796875 23.488281-6.609375 5.6875-10.796875 14.105469-10.796875 23.484375s4.1875 17.800782 10.796875 23.488282c-6.609375 5.683593-10.796875 14.105468-10.796875 23.484374 0 9.378907 4.1875 17.800782 10.796875 23.488282-6.609375 5.683594-10.796875 14.105468-10.796875 23.484375 0 6.289062 1.882813 12.144531 5.113282 17.035156v53.554687h-6.695313v14.992188h8.582031c-1.726562 3.53125-2.699218 7.5-2.699218 11.6875v29.722656l-187.722657-187.726562-61.769531 61.769531v168.089844l226.671875.039062 22.820313-22.820312v22.820312h53.359374v-71.894531c0-4.1875-.96875-8.152344-2.699218-11.683594h8.585937v-14.996094h-6.695312v-53.550781c3.230469-4.890625 5.113281-10.746093 5.113281-17.035156 0-9.382813-4.191406-17.800781-10.796875-23.488281 6.605469-5.6875 10.796875-14.105469 10.796875-23.484375 0-9.382813-4.191406-17.800781-10.796875-23.488281 6.605469-5.6875 10.796875-14.105469 10.796875-23.488282 0-9.378906-4.191406-17.796875-10.796875-23.484375 6.605469-5.683593 10.796875-14.105469 10.796875-23.484375 0-9.382812-4.191406-17.800781-10.796875-23.488281 6.605469-5.6875 10.796875-14.105469 10.796875-23.484375 0-15.117188-10.878906-27.738281-25.222656-30.445312l26.753906-26.757813 76.34375-76.339844 25.570312 25.566407-93.964843 93.964843 10.601562 10.601563 93.964844-93.964844h.003906l16.410157-16.410156 25.5625 25.570312-110.371094 110.371094 10.601562 10.601562 93.964844-93.96875 25.566406 25.574219-17.808594 17.816407-.003906-.003907-76.152344 76.152344 10.601563 10.601563 70.851563-70.851563 20.363281 20.359375-179.09375 179.09375 10.605469 10.601562 189.695312-189.699218zm-260.570312 354.574219-205.472656-.03125v-146.890626l46.777343-46.777343 176.195313 176.199219zm66.582031-123.183594v39.605468h-21.75v-39.605468zm.8125 123.1875h-4.1875v-51.894532h-14.996094v51.894532h-4.1875v-56.902344c0-6.441406 5.242188-11.683594 11.6875-11.683594 6.441407 0 11.683594 5.242188 11.683594 11.683594zm4.304687-154.167969c0 8.816406-7.171874 15.988281-15.988281 15.988281-8.820312 0-15.992187-7.171875-15.992187-15.988281 0-8.820313 7.171875-15.992187 15.992187-15.992187 8.816407 0 15.988281 7.171874 15.988281 15.992187zm0-46.976563c0 8.816407-7.171874 15.992188-15.988281 15.992188-8.820312 0-15.992187-7.175781-15.992187-15.992188 0-8.816406 7.171875-15.988281 15.992187-15.988281 8.816407 0 15.988281 7.171875 15.988281 15.988281zm0-46.972656c0 8.816406-7.171874 15.992188-15.988281 15.992188-8.820312 0-15.992187-7.175782-15.992187-15.992188s7.171875-15.988281 15.992187-15.988281c8.816407 0 15.988281 7.171875 15.988281 15.988281zm0-46.972656c0 8.820312-7.171874 15.992188-15.988281 15.992188-8.820312 0-15.992187-7.171876-15.992187-15.992188 0-8.816406 7.171875-15.988281 15.992187-15.988281 8.816407 0 15.988281 7.171875 15.988281 15.988281zm0-46.972656c0 8.820312-7.171874 15.992187-15.988281 15.992187-8.820312 0-15.992187-7.171875-15.992187-15.992187 0-8.816406 7.171875-15.988282 15.992187-15.988282 8.816407 0 15.988281 7.171876 15.988281 15.988282zm0 0"></path><path d="m325.394531 324.953125-10.601562-10.601563 43.257812-43.257812 10.601563 10.601562zm50.328125-50.328125-10.601562-10.601562 10.601562-10.601563 10.601563 10.605469zm17.667969-17.667969-10.601563-10.601562 10.601563-10.601563 10.601563 10.601563zm0 0" fill="#fff"></path><path d="m203.230469 480.410156-42.820313-42.820312 10.601563-10.601563 42.820312 42.820313zm-49.890625-49.890625-10.597656-10.601562 10.601562-10.601563 10.601562 10.601563zm-17.667969-17.667969-10.601563-10.601562 10.601563-10.601562 10.601563 10.601562zm0 0" fill="#fff"></path></svg>