<!-- icon666.com - MILLIONS vector ICONS FREE --><svg id="Capa_1" enable-background="new 0 0 511.999 511.999" viewBox="0 0 511.999 511.999" xmlns="http://www.w3.org/2000/svg"><g><g><g><path d="m256 187.117-190.676-120.635 21.32-32 25.761 15.984c33.885 21.025 64.369 9.424 92.076 26.753 44.104 27.585 51.519 62.346 51.519 62.346s7.414-34.76 51.518-62.345c27.707-17.329 58.191-5.728 92.076-26.753l25.761-15.984 21.32 32z" fill="#f4f8f8"></path></g><g><path d="m260.178 184.474c7.994-5.058 186.498-117.992 186.498-117.992l-21.32-31.999-25.761 15.984c-4.63 2.873-9.195 5.12-13.7 6.932-3.257 15.629-11.584 30.82-29.889 39.444-40.56 19.107-82.675 24.396-95.828 87.631z" fill="#d6e4ea"></path></g><g><path d="m256 226.471 223.32-137.08-22.226-29.501-201.094 127.227-201.095-127.227-22.226 29.501z" fill="#b9ea6a"></path></g><g><path d="m250.697 204.522c-31.311-19.381-191.224-118.361-207.881-128.585l-10.137 13.454 223.321 137.08 223.32-137.08-10.137-13.455c-16.657 10.224-176.57 109.204-207.881 128.585-3.253 2.014-7.352 2.014-10.605.001z" fill="#a1e42c"></path></g><g><path d="m499.154 77.22c9.686 15.233 5.871 35.371-8.716 46.005l-391.749 285.602v-48.347c0-23.264 12.083-44.859 31.91-57.03z" fill="#a95e2c"></path></g><g><path d="m12.845 77.22c-9.686 15.233-5.871 35.371 8.716 46.005l391.749 285.602v-48.347c0-23.265-12.083-44.859-31.91-57.03z" fill="#d57e4b"></path></g></g><g><path d="m27.703 408.827h456.592v34.345h-456.592z" fill="#bebebe"></path></g><g><path d="m27.703 427.01h456.592v16.163h-456.592z" fill="#9b9b9b"></path></g><g><path d="m7.5 443.172h496.999v34.345h-496.999z" fill="#bebebe"></path></g><g><ellipse cx="256" cy="259.173" rx="10.102" ry="10.102" transform="matrix(.924 -.383 .383 .924 -79.695 117.695)"></ellipse><path d="m504.499 435.673h-12.703v-26.846c0-4.143-3.358-7.5-7.5-7.5h-63.485v-40.847c0-25.684-13.598-49.985-35.487-63.422l-65.472-40.189 59.159-43.129c3.347-2.44 4.082-7.132 1.642-10.479-2.44-3.348-7.131-4.082-10.479-1.643l-64.146 46.765-35.694-21.91 212.904-130.686 12.666-7.771c3.105 10.563-.585 22.367-9.884 29.147l-87.281 63.632c-3.347 2.44-4.082 7.132-1.642 10.479 2.439 3.348 7.132 4.082 10.479 1.643l87.282-63.633c17.736-12.933 22.404-37.569 10.627-56.087-2.197-3.455-6.76-4.51-10.251-2.368l-14.025 8.605-18.124-24.056c-2.35-3.12-6.7-3.915-10-1.825l-4.228 2.675-17.259-25.904c-2.245-3.369-6.758-4.349-10.196-2.215l-25.762 15.985c-16.349 10.145-32.188 12.084-47.504 13.96-14.745 1.807-29.992 3.674-44.595 12.808-26.237 16.408-40.259 35.301-47.541 48.865-7.283-13.563-21.304-32.456-47.541-48.865-14.604-9.134-29.851-11.001-44.595-12.808-15.316-1.876-31.155-3.815-47.504-13.96l-25.762-15.985c-3.439-2.133-7.952-1.153-10.196 2.215l-17.259 25.904-4.228-2.675c-3.299-2.088-7.649-1.295-10 1.825l-18.125 24.057-14.022-8.607c-3.491-2.143-8.054-1.089-10.252 2.367-11.777 18.522-7.109 43.16 10.627 56.09l86.042 62.729c3.349 2.44 8.039 1.705 10.479-1.643 2.44-3.347 1.705-8.038-1.642-10.479l-86.042-62.729c-9.299-6.778-12.988-18.582-9.883-29.148l361.379 221.826c17.478 10.729 28.334 30.132 28.334 50.639v33.598l-265.142-193.301c-3.349-2.439-8.039-1.706-10.479 1.643-2.44 3.347-1.705 8.038 1.642 10.479l60.315 43.972-65.471 40.185c-21.889 13.438-35.487 37.74-35.487 63.425v40.847h-63.485c-4.142 0-7.5 3.357-7.5 7.5v26.846h-12.703c-4.142 0-7.5 3.357-7.5 7.5v34.345c0 4.143 3.358 7.5 7.5 7.5h496.999c4.142 0 7.5-3.357 7.5-7.5v-34.345c0-4.144-3.358-7.501-7.5-7.501zm-193.004-352.095c11.779-7.367 24.146-8.882 38.465-10.636 16.14-1.977 34.433-4.217 53.588-16.103l19.592-12.156 13.036 19.566-170.268 107.724c6.529-12.369 26.223-40.985 75.918-61.544 3.828-1.584 5.646-5.971 4.063-9.798-1.583-3.828-5.971-5.646-9.797-4.063-38.018 15.729-60.14 36.077-72.592 51.894v-7.953c1.286-4.632 10.614-33.551 47.995-56.931zm-222.636-38.894 19.592 12.156c19.155 11.886 37.449 14.126 53.588 16.103 14.319 1.754 26.686 3.269 38.465 10.636 37.44 23.417 46.738 52.392 47.995 56.924v7.959c-12.452-15.817-34.574-36.165-72.592-51.894-3.826-1.583-8.214.235-9.797 4.063-1.583 3.827.235 8.214 4.063 9.798 49.198 20.354 69.134 49.021 75.826 61.486l-170.176-107.665zm-32.123 25.24 195.254 123.531c1.224.774 2.617 1.162 4.01 1.162s2.786-.388 4.01-1.162l195.253-123.531 13.103 17.392-212.369 130.358-212.365-130.356zm49.451 290.556c0-20.508 10.857-39.912 28.334-50.642l70.731-43.413 38.018 27.717-137.083 99.936zm-70.984 55.847h203.047c4.142 0 7.5-3.357 7.5-7.5s-3.358-7.5-7.5-7.5h-116.544l134.295-97.903 134.29 97.903h-116.596c-4.142 0-7.5 3.357-7.5 7.5s3.358 7.5 7.5 7.5h203.101v19.346h-441.593zm461.796 53.691h-481.999v-19.345h481.999z"></path></g></g></svg>