<!-- icon666.com - MILLIONS vector ICONS FREE --><svg version="1.1" id="Layer_1" xmlns="http://www.w3.org/2000/svg" xmlns:xlink="http://www.w3.org/1999/xlink" x="0px" y="0px" viewBox="0 0 512 512" style="enable-background:new 0 0 512 512;" xml:space="preserve"><path style="fill:#14A571;" d="M131.605,259.954l-33.477-33.478c-9.768-9.768-9.768-25.663,0.002-35.43l23.689-23.689L49.81,95.35 l-5.688,5.688c-49.472,49.472-49.472,129.971,0,179.443l188.016,188.016c49.474,49.474,129.973,49.474,179.445,0l5.689-5.687 l-72.008-72.006l-23.689,23.69c-9.768,9.769-25.662,9.768-35.431-0.002L152.459,280.807"></path><path style="fill:#1BBC86;" d="M339.81,396.256l-18.235,18.236c-9.768,9.769-25.662,9.768-35.431-0.002 c-4.551-4.551-184.39-184.389-188.016-188.015c-9.768-9.768-9.768-25.663,0.002-35.43l19.895-19.894 c0.704-1.705,1.606-3.346,2.694-4.893L49.842,95.382C19.507,145.001,25.778,210.856,68.673,253.75l190.984,190.985 c41.841,41.842,105.528,48.838,154.684,21.005l2.929-2.93l-70.119-70.118C344.874,394.295,342.393,395.487,339.81,396.256z"></path><g><path style="fill:#16A873;" d="M454.846,480.792c-5.965,5.966-15.637,5.966-21.602,0L327.034,374.583 c-5.965-5.965-5.965-15.64,0-21.602l45.904-45.905c5.965-5.964,15.637-5.965,21.602,0L500.75,413.287 c5.965,5.965,5.965,15.637,0,21.602L454.846,480.792z"></path><path style="fill:#16A873;" d="M160.518,186.465c-5.966,5.964-15.638,5.965-21.603,0L32.704,80.254 c-5.965-5.966-5.964-15.638,0-21.602L78.61,12.748c5.964-5.965,15.637-5.965,21.602,0l106.209,106.21 c5.967,5.965,5.965,15.636,0,21.602L160.518,186.465z"></path></g><g><path style="fill:#149362;" d="M500.75,413.287L394.539,307.076c-5.965-5.965-15.637-5.964-21.602,0l-16.2,16.201L484.55,451.089 l16.2-16.2C506.715,428.924,506.715,419.252,500.75,413.287z"></path><path style="fill:#149362;" d="M206.421,118.958L100.212,12.748c-5.966-5.965-15.639-5.965-21.602,0L62.407,28.949L190.22,156.761 l16.2-16.202C212.386,134.593,212.388,124.923,206.421,118.958z"></path><path style="fill:#149362;" d="M336.622,368.073l59.457-59.457l-1.541-1.54c-5.965-5.965-15.637-5.965-21.602,0l-45.904,45.904 c-5.965,5.964-5.965,15.637,0,21.602l4.096,4.096C331.803,374.796,333.626,371.072,336.622,368.073z"></path></g><path style="fill:#0E7C4F;" d="M396.08,308.617l-1.541-1.54c-5.965-5.965-15.637-5.965-21.602,0l-16.202,16.2l12.343,12.342 L396.08,308.617z"></path><path style="fill:#149362;" d="M42.295,73.745l59.458-59.458l-1.542-1.54c-5.966-5.965-15.639-5.965-21.602,0L32.704,58.652 c-5.964,5.965-5.965,15.637,0,21.602l4.099,4.096C37.475,80.467,39.296,76.743,42.295,73.745z"></path><path style="fill:#0E7C4F;" d="M101.753,14.287l-1.542-1.54c-5.966-5.965-15.639-5.965-21.602,0L62.407,28.949l12.341,12.342 L101.753,14.287z"></path><path d="M505.36,405.816L399.628,300.085c-8.877-8.875-23.24-8.873-32.118,0l-45.696,45.698c-4.289,4.288-6.652,9.991-6.652,16.058 c0,11.546,6.714,16.122,18.493,27.901l-18.276,18.276c-6.799,6.799-17.859,6.8-24.658-0.001l-133.08-133.081 c-2.931-2.93-7.682-2.928-10.612,0c-2.93,2.931-2.93,7.682,0,10.612l133.081,133.08c12.667,12.665,33.219,12.666,45.883,0.001 l18.275-18.276c4.154,4.153,45.499,45.498,61.071,61.069c-48.397,48.264-123.415,45.318-168.379,0.354L49.792,274.609 C4.254,229.074,2.485,153.767,50.149,106.234l61.069,61.07l-18.276,18.274c-12.65,12.651-12.651,33.233-0.002,45.883l33.327,33.327 c2.931,2.929,7.682,2.929,10.612,0c2.93-2.931,2.93-7.682,0-10.612l-33.327-33.326c-6.798-6.799-6.797-17.861,0.001-24.659 l18.276-18.275l12.715,12.715c8.875,8.873,23.237,8.875,32.118,0c48.825-48.827,12.661-12.661,45.697-45.699 c8.874-8.876,8.875-23.241,0-32.116L106.629,7.085c-8.877-8.875-23.24-8.877-32.118,0c-9.725,9.725-37.658,37.658-45.697,45.697 c-4.288,4.289-6.65,9.992-6.65,16.058c0,11.47,6.762,16.171,17.373,26.782c-53.216,53.216-52.093,137.865-0.356,189.601 l187.168,187.168c51.086,51.084,135.703,53.508,189.604-0.355c11.526,11.526,16.133,18.247,27.654,18.247 c6.066,0,11.769-2.362,16.059-6.651l45.697-45.697C514.214,429.079,514.214,414.671,505.36,405.816z M203.855,130.388 c-0.584,2.943-1.222,3.044-12.931,14.754L74.301,28.519C85.779,17.041,86.493,15.441,90.57,15.441c2.056,0,3.991,0.8,5.446,2.256 C210.128,131.811,202.88,124.01,203.673,126.631C204.044,127.858,204.097,129.164,203.855,130.388z M39.427,63.395l24.262-24.263 l116.623,116.623c-26.199,26.201-25.457,26.519-29.71,26.519c-4.58,0,2.923,6.112-111.176-107.988 C36.423,71.284,36.423,66.397,39.427,63.395z M389.016,310.698c113.886,113.885,106.874,106.299,107.666,108.983 c0.774,2.621,0.13,5.576-1.935,7.641l-10.821,10.821L367.301,321.52c11.687-11.687,12.026-12.7,15.505-13.041 C385.071,308.257,387.337,309.018,389.016,310.698z M443.605,475.275c-2.058,0-3.991-0.801-5.446-2.257 C322.892,357.752,330.17,366.445,330.17,361.841c0-4.25,0.399-3.588,26.52-29.709l116.623,116.622 C447.196,474.871,447.857,475.275,443.605,475.275z"></path><path d="M283.143,188.057c22.875,0,41.486,18.611,41.486,41.486c0,4.145,3.359,7.504,7.504,7.504c4.145,0,7.504-3.359,7.504-7.504 c0-31.151-25.342-56.494-56.494-56.494c-4.145,0-7.504,3.359-7.504,7.504S278.998,188.057,283.143,188.057z"></path><path d="M283.143,112.293c64.652,0,117.249,52.598,117.249,117.249c0,4.145,3.359,7.504,7.504,7.504 c4.145,0,7.504-3.359,7.504-7.504c0-72.928-59.331-132.257-132.257-132.257c-4.145,0-7.504,3.359-7.504,7.504 C275.64,108.933,278.998,112.293,283.143,112.293z"></path><path d="M283.143,35.901c106.774,0,193.642,86.868,193.642,193.642c0,4.145,3.359,7.504,7.504,7.504s7.504-3.359,7.504-7.504 c0-115.049-93.6-208.649-208.649-208.649c-4.145,0-7.504,3.359-7.504,7.504S278.998,35.901,283.143,35.901z"></path></svg>