<!-- icon666.com - MILLIONS vector ICONS FREE --><svg viewBox="-11 0 512 512.00035" xmlns="http://www.w3.org/2000/svg"><path d="m479.542969 246.757812c0 129.585938-105.050781 234.636719-234.636719 234.636719-129.589844 0-234.640625-105.050781-234.640625-234.636719 0-129.585937 105.050781-234.636718 234.640625-234.636718 129.585938 0 234.636719 105.050781 234.636719 234.636718zm0 0" fill="#fbedbf"></path><path d="m316.316406 478.640625c-5.636718-.019531-10.1875-4.597656-10.171875-10.234375.011719-4.429688 2.886719-8.347656 7.109375-9.691406 118.070313-37.734375 183.191406-164.039063 145.453125-282.109375-37.734375-118.066407-164.039062-183.1875-282.105469-145.453125-118.070312 37.738281-183.191406 164.039062-145.457031 282.109375 21.023438 65.777343 71.15625 118.210937 135.921875 142.167969l61.769532-195.789063c1.691406-5.375 7.417968-8.363281 12.792968-6.671875s8.363282 7.417969 6.671875 12.792969l-64.914062 205.644531c-.753907 2.394531-2.367188 4.421875-4.527344 5.703125-2.554687 1.515625-5.628906 1.886719-8.46875 1.019531-128.804687-41.152344-199.863281-178.929687-158.710937-307.738281 41.152343-128.804687 178.929687-199.863281 307.738281-158.710937 128.804687 41.152343 199.863281 178.929687 158.710937 307.738281-24.109375 75.464843-83.246094 134.601562-158.710937 158.710937-1.003907.328125-2.046875.5-3.101563.511719zm0 0" fill="#ea6b65"></path><path d="m230.878906 241.035156c-2.707031-.003906-5.300781-1.078125-7.214844-2.992187l-87.988281-87.988281c-3.914062-4.050782-3.800781-10.511719.25-14.425782 3.953125-3.816406 10.222657-3.816406 14.175781 0l87.988282 87.992188c3.984375 3.984375 3.980468 10.441406-.003906 14.425781-1.910157 1.910156-4.503907 2.984375-7.207032 2.988281zm0 0" fill="#ea6b65"></path><g fill="#e06661"><path d="m244.90625 81.632812c-5.636719 0-10.203125-4.566406-10.203125-10.199218v-20.40625c0-5.632813 4.566406-10.199219 10.203125-10.199219 5.632812 0 10.199219 4.566406 10.199219 10.199219v20.40625c0 5.632812-4.566407 10.199218-10.199219 10.199218zm0 0"></path><path d="m71.476562 255.0625h-20.402343c-5.632813 0-10.203125-4.570312-10.203125-10.203125s4.570312-10.203125 10.203125-10.203125h20.402343c5.632813 0 10.203126 4.570312 10.203126 10.203125s-4.570313 10.203125-10.203126 10.203125zm0 0"></path><path d="m438.734375 255.0625h-20.402344c-5.632812 0-10.203125-4.570312-10.203125-10.203125s4.570313-10.203125 10.203125-10.203125h20.402344c5.632813 0 10.203125 4.570312 10.203125 10.203125s-4.570312 10.203125-10.203125 10.203125zm0 0"></path><path d="m265.308594 244.859375c0 11.269531-9.136719 20.402344-20.402344 20.402344-11.269531 0-20.40625-9.132813-20.40625-20.402344s9.136719-20.402344 20.40625-20.402344c11.265625 0 20.402344 9.132813 20.402344 20.402344zm0 0"></path></g><path d="m336.71875 501.796875-78.328125-25.085937 61.382813-54.75zm0 0" fill="#ea6b65"></path><path d="m489.742188 244.859375c-.027344-135.222656-109.667969-244.8164062-244.890626-244.7851562-135.21875.0273432-244.8164058 109.6679692-244.7851558 244.8906252.0234376 106.511718 68.9023438 200.789062 170.3671878 233.183594.964844.304687 1.972656.460937 2.988281.460937 1.925781-.007813 3.816406-.523437 5.480469-1.5 2.15625-1.28125 3.769531-3.308594 4.527344-5.703125l61.832031-195.972656c16.902343-.085938 30.535156-13.859375 30.445312-30.761719-.085937-16.902344-13.859375-30.535156-30.761719-30.449219-4.546874.019532-9.03125 1.066406-13.117187 3.0625l-81.6875-81.695312c-4.050781-3.914063-10.511719-3.800782-14.425781.25-3.816406 3.953125-3.816406 10.222656 0 14.175781l81.644531 81.734375c-6.265625 12.789062-2.683594 28.222656 8.578125 36.941406l-58.914062 186.738282c-116.425782-42.886719-176.042969-172.039063-133.152344-288.46875 42.886718-116.425782 172.039062-176.042969 288.464844-133.152344 116.429687 42.886718 176.046874 172.039062 133.15625 288.464844-20.953126 56.882812-64.003907 102.886718-119.375 127.554687l-6.367188-29.980469c-1.164062-5.511718-6.582031-9.035156-12.09375-7.867187-1.738281.367187-3.351562 1.183593-4.675781 2.367187l-61.382813 54.804688c-4.210937 3.746094-4.585937 10.195312-.839844 14.402344 1.21875 1.371093 2.785157 2.382812 4.53125 2.941406l78.371094 25.011718c5.363282 1.722657 11.109375-1.226562 12.832032-6.589843.542968-1.695313.636718-3.503907.265624-5.242188l-6.253906-29.421875c90.613282-38.203125 149.449219-127.058594 149.238282-225.394531zm-244.835938-10.203125c5.632812 0 10.199219 4.570312 10.199219 10.203125s-4.566407 10.203125-10.199219 10.203125c-5.636719 0-10.203125-4.570312-10.203125-10.203125s4.566406-10.203125 10.203125-10.203125zm33.601562 237.789062 34.941407-31.164062 9.640625 45.4375zm0 0"></path><path d="m234.703125 51.027344v20.40625c0 5.632812 4.566406 10.199218 10.203125 10.199218 5.632812 0 10.199219-4.566406 10.199219-10.199218v-20.40625c0-5.632813-4.566407-10.199219-10.199219-10.199219-5.636719 0-10.203125 4.566406-10.203125 10.199219zm0 0"></path><path d="m51.074219 234.65625c-5.632813 0-10.203125 4.570312-10.203125 10.203125s4.570312 10.203125 10.203125 10.203125h20.402343c5.632813 0 10.203126-4.570312 10.203126-10.203125s-4.570313-10.203125-10.203126-10.203125zm0 0"></path><path d="m438.734375 255.0625c5.632813 0 10.203125-4.570312 10.203125-10.203125s-4.570312-10.203125-10.203125-10.203125h-20.402344c-5.632812 0-10.203125 4.570312-10.203125 10.203125s4.570313 10.203125 10.203125 10.203125zm0 0"></path></svg>